<svg width="239" height="56" viewBox="0 0 239 56" fill="none" xmlns="http://www.w3.org/2000/svg">
<g filter="url(#filter0_b)">
<rect y="8" width="239" height="48" rx="4" fill="white" fill-opacity="0.4"/>
</g>
<g filter="url(#filter1_b)">
<path d="M25 -3.49691e-07L33 8L17 8L25 -3.49691e-07Z" fill="white" fill-opacity="0.4"/>
</g>
<path d="M24.6562 37H16.9766V25.625H24.6484V27.6094H19.4375V30.1953H23.875V32.1094H19.4375V35.0234H24.6562V37ZM28.2031 37H25.8438V28.5469H28.0625L28.1406 29.4688C28.4167 29.1302 28.7552 28.8672 29.1562 28.6797C29.5625 28.487 30.026 28.3906 30.5469 28.3906C31.0469 28.3906 31.4896 28.4922 31.875 28.6953C32.2604 28.8984 32.5599 29.2214 32.7734 29.6641C33.0443 29.2682 33.388 28.9583 33.8047 28.7344C34.2266 28.5052 34.7214 28.3906 35.2891 28.3906C36.1016 28.3906 36.7552 28.6328 37.25 29.1172C37.7448 29.6016 37.9922 30.4401 37.9922 31.6328V37H35.6172V31.625C35.6172 31.0833 35.5104 30.7292 35.2969 30.5625C35.0833 30.3906 34.7891 30.3047 34.4141 30.3047C34.0911 30.3047 33.8203 30.3828 33.6016 30.5391C33.3828 30.6953 33.2135 30.9062 33.0938 31.1719C33.0938 31.2344 33.0938 31.2969 33.0938 31.3594V37H30.7344V31.6484C30.7344 31.1068 30.625 30.7474 30.4062 30.5703C30.1927 30.3932 29.8958 30.3047 29.5156 30.3047C29.2135 30.3047 28.9531 30.3698 28.7344 30.5C28.5156 30.6302 28.3385 30.8099 28.2031 31.0391V37ZM44.2109 31.3672C44.2109 30.987 44.1172 30.6849 43.9297 30.4609C43.7422 30.237 43.4427 30.125 43.0312 30.125C42.6719 30.125 42.3932 30.2109 42.1953 30.3828C41.9974 30.5547 41.8984 30.7943 41.8984 31.1016H39.5391C39.5391 30.6016 39.6875 30.1484 39.9844 29.7422C40.2812 29.3307 40.7005 29.0026 41.2422 28.7578C41.7839 28.513 42.4219 28.3906 43.1562 28.3906C43.8125 28.3906 44.3984 28.5026 44.9141 28.7266C45.4297 28.9453 45.8359 29.276 46.1328 29.7188C46.4297 30.1615 46.5781 30.7161 46.5781 31.3828V34.9141C46.5781 35.4141 46.6068 35.8099 46.6641 36.1016C46.7266 36.3932 46.8125 36.6484 46.9219 36.8672V37H44.5469C44.4531 36.8021 44.3776 36.5547 44.3203 36.2578C44.1016 36.5078 43.8203 36.7214 43.4766 36.8984C43.138 37.0703 42.7188 37.1562 42.2188 37.1562C41.6823 37.1562 41.1953 37.0495 40.7578 36.8359C40.3255 36.6172 39.9818 36.3177 39.7266 35.9375C39.4714 35.5521 39.3438 35.112 39.3438 34.6172C39.3438 33.7318 39.6719 33.0469 40.3281 32.5625C40.9844 32.0729 41.9609 31.8281 43.2578 31.8281H44.2109V31.3672ZM42.7422 35.3672C43.1068 35.3672 43.4141 35.2891 43.6641 35.1328C43.9193 34.9714 44.1016 34.7943 44.2109 34.6016V33.1875H43.3281C42.7552 33.1875 42.3411 33.3125 42.0859 33.5625C41.8307 33.8073 41.7031 34.1042 41.7031 34.4531C41.7031 34.7188 41.7969 34.9375 41.9844 35.1094C42.1719 35.2812 42.4245 35.3672 42.7422 35.3672ZM48.2422 26.3672C48.2422 26.0182 48.362 25.7292 48.6016 25.5C48.8411 25.2708 49.1615 25.1562 49.5625 25.1562C49.9635 25.1562 50.2812 25.2708 50.5156 25.5C50.7552 25.7292 50.875 26.0182 50.875 26.3672C50.875 26.7214 50.7552 27.013 50.5156 27.2422C50.2812 27.4661 49.9635 27.5781 49.5625 27.5781C49.1615 27.5781 48.8411 27.4661 48.6016 27.2422C48.362 27.013 48.2422 26.7214 48.2422 26.3672ZM50.75 37H48.3828V28.5469H50.75V37ZM55.0469 37H52.6797V25H55.0469V37ZM64.7891 37.1562C63.8984 37.1562 63.1354 36.9714 62.5 36.6016C61.8698 36.2318 61.3854 35.737 61.0469 35.1172C60.7135 34.4974 60.5469 33.8125 60.5469 33.0625V32.7578C60.5469 31.9141 60.7057 31.1641 61.0234 30.5078C61.3464 29.8516 61.8047 29.3359 62.3984 28.9609C62.9922 28.5807 63.7005 28.3906 64.5234 28.3906C65.7474 28.3906 66.6797 28.7708 67.3203 29.5312C67.9609 30.2865 68.2812 31.2917 68.2812 32.5469V33.5469H62.9453C63.0286 34.0625 63.2422 34.4766 63.5859 34.7891C63.9349 35.0964 64.3854 35.25 64.9375 35.25C65.3385 35.25 65.7109 35.1771 66.0547 35.0312C66.4036 34.8802 66.7031 34.6458 66.9531 34.3281L68.0938 35.6328C67.8281 36.013 67.4167 36.362 66.8594 36.6797C66.3021 36.9974 65.612 37.1562 64.7891 37.1562ZM64.5078 30.2891C64.0443 30.2891 63.6901 30.4453 63.4453 30.7578C63.2005 31.0651 63.0391 31.4661 62.9609 31.9609H65.9609V31.7734C65.9557 31.3411 65.8359 30.987 65.6016 30.7109C65.3724 30.4297 65.0078 30.2891 64.5078 30.2891ZM70.2734 37.9766H68.5391L72.6641 25.625H74.3984L70.2734 37.9766ZM75.0859 32.6953C75.0859 31.8724 75.2422 31.138 75.5547 30.4922C75.8672 29.8411 76.3229 29.3281 76.9219 28.9531C77.5208 28.5781 78.2474 28.3906 79.1016 28.3906C79.9661 28.3906 80.6979 28.5781 81.2969 28.9531C81.901 29.3281 82.3568 29.8411 82.6641 30.4922C82.9766 31.138 83.1328 31.8724 83.1328 32.6953V32.8594C83.1328 33.6771 82.9766 34.4115 82.6641 35.0625C82.3568 35.7083 81.9036 36.2188 81.3047 36.5938C80.7057 36.9688 79.9766 37.1562 79.1172 37.1562C78.2578 37.1562 77.526 36.9688 76.9219 36.5938C76.3229 36.2188 75.8672 35.7083 75.5547 35.0625C75.2422 34.4115 75.0859 33.6771 75.0859 32.8594V32.6953ZM77.4531 32.8594C77.4531 33.3021 77.5052 33.7057 77.6094 34.0703C77.7135 34.4349 77.888 34.724 78.1328 34.9375C78.3776 35.151 78.7057 35.2578 79.1172 35.2578C79.7266 35.2578 80.1536 35.026 80.3984 34.5625C80.6484 34.0938 80.7734 33.526 80.7734 32.8594V32.6953C80.7734 32.263 80.7188 31.8646 80.6094 31.5C80.5052 31.1354 80.3307 30.8438 80.0859 30.625C79.8464 30.401 79.5182 30.2891 79.1016 30.2891C78.6953 30.2891 78.3724 30.401 78.1328 30.625C77.8932 30.8438 77.7188 31.1354 77.6094 31.5C77.5052 31.8646 77.4531 32.263 77.4531 32.6953V32.8594ZM89.4453 28.5469H91.8047V37H89.5938L89.5312 36.1328C89.2708 36.4557 88.9479 36.7083 88.5625 36.8906C88.1823 37.0677 87.7396 37.1562 87.2344 37.1562C86.401 37.1562 85.724 36.9115 85.2031 36.4219C84.6875 35.9323 84.4297 35.1302 84.4297 34.0156V28.5469H86.7891V34.0312C86.7891 34.4635 86.8958 34.7734 87.1094 34.9609C87.3229 35.1484 87.599 35.2422 87.9375 35.2422C88.3281 35.2422 88.6432 35.1745 88.8828 35.0391C89.1276 34.9036 89.3151 34.7214 89.4453 34.4922V28.5469ZM101.984 34.6406C101.984 34.4115 101.872 34.2214 101.648 34.0703C101.43 33.9141 100.974 33.763 100.281 33.6172C99.7083 33.4974 99.1953 33.3307 98.7422 33.1172C98.2943 32.8984 97.9375 32.6198 97.6719 32.2812C97.4115 31.9427 97.2812 31.5286 97.2812 31.0391C97.2812 30.5651 97.4167 30.1276 97.6875 29.7266C97.9583 29.3255 98.3464 29.0026 98.8516 28.7578C99.362 28.513 99.9714 28.3906 100.68 28.3906C101.789 28.3906 102.661 28.6484 103.297 29.1641C103.938 29.6745 104.258 30.3281 104.258 31.125H101.898C101.898 30.8073 101.799 30.5495 101.602 30.3516C101.409 30.1484 101.099 30.0469 100.672 30.0469C100.323 30.0469 100.047 30.1302 99.8438 30.2969C99.6406 30.4635 99.5391 30.6719 99.5391 30.9219C99.5391 31.1615 99.651 31.3568 99.875 31.5078C100.104 31.6536 100.503 31.7786 101.07 31.8828C101.669 32.0026 102.211 32.1615 102.695 32.3594C103.18 32.5521 103.565 32.8255 103.852 33.1797C104.138 33.5286 104.281 33.987 104.281 34.5547C104.281 35.0547 104.133 35.5 103.836 35.8906C103.544 36.2812 103.128 36.5911 102.586 36.8203C102.049 37.0443 101.417 37.1562 100.688 37.1562C99.8906 37.1562 99.2188 37.013 98.6719 36.7266C98.125 36.4401 97.7109 36.0781 97.4297 35.6406C97.1484 35.1979 97.0078 34.7474 97.0078 34.2891H99.2422C99.263 34.7109 99.4167 35.0182 99.7031 35.2109C99.9948 35.3984 100.341 35.4922 100.742 35.4922C101.148 35.4922 101.456 35.4141 101.664 35.2578C101.878 35.1016 101.984 34.8958 101.984 34.6406ZM109.633 37.1562C108.742 37.1562 107.979 36.9714 107.344 36.6016C106.714 36.2318 106.229 35.737 105.891 35.1172C105.557 34.4974 105.391 33.8125 105.391 33.0625V32.7578C105.391 31.9141 105.549 31.1641 105.867 30.5078C106.19 29.8516 106.648 29.3359 107.242 28.9609C107.836 28.5807 108.544 28.3906 109.367 28.3906C110.591 28.3906 111.523 28.7708 112.164 29.5312C112.805 30.2865 113.125 31.2917 113.125 32.5469V33.5469H107.789C107.872 34.0625 108.086 34.4766 108.43 34.7891C108.779 35.0964 109.229 35.25 109.781 35.25C110.182 35.25 110.555 35.1771 110.898 35.0312C111.247 34.8802 111.547 34.6458 111.797 34.3281L112.938 35.6328C112.672 36.013 112.26 36.362 111.703 36.6797C111.146 36.9974 110.456 37.1562 109.633 37.1562ZM109.352 30.2891C108.888 30.2891 108.534 30.4453 108.289 30.7578C108.044 31.0651 107.883 31.4661 107.805 31.9609H110.805V31.7734C110.799 31.3411 110.68 30.987 110.445 30.7109C110.216 30.4297 109.852 30.2891 109.352 30.2891ZM116.664 37H114.305V28.5469H116.523L116.602 29.5078C117.201 28.763 118.005 28.3906 119.016 28.3906C119.547 28.3906 120.013 28.4948 120.414 28.7031C120.815 28.9062 121.128 29.2448 121.352 29.7188C121.576 30.1927 121.688 30.8333 121.688 31.6406V37H119.32V31.625C119.32 31.1042 119.208 30.7552 118.984 30.5781C118.76 30.3958 118.438 30.3047 118.016 30.3047C117.703 30.3047 117.435 30.3698 117.211 30.5C116.987 30.6302 116.805 30.8099 116.664 31.0391V37ZM125.648 37H123.281V25H125.648V29.4375C125.924 29.1094 126.25 28.8542 126.625 28.6719C127 28.4844 127.414 28.3906 127.867 28.3906C128.701 28.3906 129.375 28.6406 129.891 29.1406C130.411 29.6406 130.672 30.4922 130.672 31.6953V37H128.305V31.6797C128.305 31.1536 128.19 30.7943 127.961 30.6016C127.732 30.4036 127.409 30.3047 126.992 30.3047C126.664 30.3047 126.391 30.3646 126.172 30.4844C125.953 30.6042 125.779 30.7682 125.648 30.9766V37ZM136.852 31.3672C136.852 30.987 136.758 30.6849 136.57 30.4609C136.383 30.237 136.083 30.125 135.672 30.125C135.312 30.125 135.034 30.2109 134.836 30.3828C134.638 30.5547 134.539 30.7943 134.539 31.1016H132.18C132.18 30.6016 132.328 30.1484 132.625 29.7422C132.922 29.3307 133.341 29.0026 133.883 28.7578C134.424 28.513 135.062 28.3906 135.797 28.3906C136.453 28.3906 137.039 28.5026 137.555 28.7266C138.07 28.9453 138.477 29.276 138.773 29.7188C139.07 30.1615 139.219 30.7161 139.219 31.3828V34.9141C139.219 35.4141 139.247 35.8099 139.305 36.1016C139.367 36.3932 139.453 36.6484 139.562 36.8672V37H137.188C137.094 36.8021 137.018 36.5547 136.961 36.2578C136.742 36.5078 136.461 36.7214 136.117 36.8984C135.779 37.0703 135.359 37.1562 134.859 37.1562C134.323 37.1562 133.836 37.0495 133.398 36.8359C132.966 36.6172 132.622 36.3177 132.367 35.9375C132.112 35.5521 131.984 35.112 131.984 34.6172C131.984 33.7318 132.312 33.0469 132.969 32.5625C133.625 32.0729 134.602 31.8281 135.898 31.8281H136.852V31.3672ZM135.383 35.3672C135.747 35.3672 136.055 35.2891 136.305 35.1328C136.56 34.9714 136.742 34.7943 136.852 34.6016V33.1875H135.969C135.396 33.1875 134.982 33.3125 134.727 33.5625C134.471 33.8073 134.344 34.1042 134.344 34.4531C134.344 34.7188 134.438 34.9375 134.625 35.1094C134.812 35.2812 135.065 35.3672 135.383 35.3672ZM144.867 26.3672C144.867 26.0182 144.987 25.7292 145.227 25.5C145.466 25.2708 145.786 25.1562 146.188 25.1562C146.589 25.1562 146.906 25.2708 147.141 25.5C147.38 25.7292 147.5 26.0182 147.5 26.3672C147.5 26.7214 147.38 27.013 147.141 27.2422C146.906 27.4661 146.589 27.5781 146.188 27.5781C145.786 27.5781 145.466 27.4661 145.227 27.2422C144.987 27.013 144.867 26.7214 144.867 26.3672ZM147.375 37H145.008V28.5469H147.375V37ZM151.492 37H149.133V28.5469H151.352L151.43 29.5078C152.029 28.763 152.833 28.3906 153.844 28.3906C154.375 28.3906 154.841 28.4948 155.242 28.7031C155.643 28.9062 155.956 29.2448 156.18 29.7188C156.404 30.1927 156.516 30.8333 156.516 31.6406V37H154.148V31.625C154.148 31.1042 154.036 30.7552 153.812 30.5781C153.589 30.3958 153.266 30.3047 152.844 30.3047C152.531 30.3047 152.263 30.3698 152.039 30.5C151.815 30.6302 151.633 30.8099 151.492 31.0391V37ZM161.703 35.2578C162.104 35.2578 162.427 35.1484 162.672 34.9297C162.922 34.7057 163.049 34.4089 163.055 34.0391H165.273C165.268 34.6484 165.109 35.1875 164.797 35.6562C164.484 36.125 164.062 36.4922 163.531 36.7578C163 37.0234 162.404 37.1562 161.742 37.1562C160.867 37.1562 160.138 36.9688 159.555 36.5938C158.977 36.2135 158.542 35.7005 158.25 35.0547C157.964 34.4036 157.82 33.6797 157.82 32.8828V32.6719C157.82 31.8698 157.964 31.1458 158.25 30.5C158.542 29.8542 158.977 29.3411 159.555 28.9609C160.138 28.5807 160.865 28.3906 161.734 28.3906C162.432 28.3906 163.044 28.526 163.57 28.7969C164.102 29.0625 164.516 29.4453 164.812 29.9453C165.115 30.4401 165.268 31.0339 165.273 31.7266H163.055C163.049 31.3307 162.932 30.9922 162.703 30.7109C162.474 30.4297 162.135 30.2891 161.688 30.2891C161.271 30.2891 160.953 30.401 160.734 30.625C160.521 30.849 160.375 31.1432 160.297 31.5078C160.219 31.8672 160.18 32.2552 160.18 32.6719V32.8828C160.18 33.3047 160.216 33.6979 160.289 34.0625C160.367 34.4219 160.516 34.7109 160.734 34.9297C160.953 35.1484 161.276 35.2578 161.703 35.2578ZM166.18 32.6953C166.18 31.8724 166.336 31.138 166.648 30.4922C166.961 29.8411 167.417 29.3281 168.016 28.9531C168.615 28.5781 169.341 28.3906 170.195 28.3906C171.06 28.3906 171.792 28.5781 172.391 28.9531C172.995 29.3281 173.451 29.8411 173.758 30.4922C174.07 31.138 174.227 31.8724 174.227 32.6953V32.8594C174.227 33.6771 174.07 34.4115 173.758 35.0625C173.451 35.7083 172.997 36.2188 172.398 36.5938C171.799 36.9688 171.07 37.1562 170.211 37.1562C169.352 37.1562 168.62 36.9688 168.016 36.5938C167.417 36.2188 166.961 35.7083 166.648 35.0625C166.336 34.4115 166.18 33.6771 166.18 32.8594V32.6953ZM168.547 32.8594C168.547 33.3021 168.599 33.7057 168.703 34.0703C168.807 34.4349 168.982 34.724 169.227 34.9375C169.471 35.151 169.799 35.2578 170.211 35.2578C170.82 35.2578 171.247 35.026 171.492 34.5625C171.742 34.0938 171.867 33.526 171.867 32.8594V32.6953C171.867 32.263 171.812 31.8646 171.703 31.5C171.599 31.1354 171.424 30.8438 171.18 30.625C170.94 30.401 170.612 30.2891 170.195 30.2891C169.789 30.2891 169.466 30.401 169.227 30.625C168.987 30.8438 168.812 31.1354 168.703 31.5C168.599 31.8646 168.547 32.263 168.547 32.6953V32.8594ZM177.938 37H175.578V28.5469H177.797L177.875 29.5547C178.078 29.1901 178.336 28.9062 178.648 28.7031C178.961 28.4948 179.323 28.3906 179.734 28.3906C179.854 28.3906 179.979 28.401 180.109 28.4219C180.245 28.4375 180.354 28.4609 180.438 28.4922L180.406 30.7656C180.292 30.75 180.154 30.737 179.992 30.7266C179.836 30.7109 179.698 30.7031 179.578 30.7031C178.74 30.7031 178.193 30.9766 177.938 31.5234V37ZM183.828 37H181.469V28.5469H183.688L183.766 29.5547C183.969 29.1901 184.227 28.9062 184.539 28.7031C184.852 28.4948 185.214 28.3906 185.625 28.3906C185.745 28.3906 185.87 28.401 186 28.4219C186.135 28.4375 186.245 28.4609 186.328 28.4922L186.297 30.7656C186.182 30.75 186.044 30.737 185.883 30.7266C185.727 30.7109 185.589 30.7031 185.469 30.7031C184.63 30.7031 184.083 30.9766 183.828 31.5234V37ZM191.305 37.1562C190.414 37.1562 189.651 36.9714 189.016 36.6016C188.385 36.2318 187.901 35.737 187.562 35.1172C187.229 34.4974 187.062 33.8125 187.062 33.0625V32.7578C187.062 31.9141 187.221 31.1641 187.539 30.5078C187.862 29.8516 188.32 29.3359 188.914 28.9609C189.508 28.5807 190.216 28.3906 191.039 28.3906C192.263 28.3906 193.195 28.7708 193.836 29.5312C194.477 30.2865 194.797 31.2917 194.797 32.5469V33.5469H189.461C189.544 34.0625 189.758 34.4766 190.102 34.7891C190.451 35.0964 190.901 35.25 191.453 35.25C191.854 35.25 192.227 35.1771 192.57 35.0312C192.919 34.8802 193.219 34.6458 193.469 34.3281L194.609 35.6328C194.344 36.013 193.932 36.362 193.375 36.6797C192.818 36.9974 192.128 37.1562 191.305 37.1562ZM191.023 30.2891C190.56 30.2891 190.206 30.4453 189.961 30.7578C189.716 31.0651 189.555 31.4661 189.477 31.9609H192.477V31.7734C192.471 31.3411 192.352 30.987 192.117 30.7109C191.888 30.4297 191.523 30.2891 191.023 30.2891ZM200.258 30.2656H198.828V34.3594C198.828 34.7031 198.896 34.9323 199.031 35.0469C199.172 35.1615 199.391 35.2188 199.688 35.2188C199.828 35.2188 199.953 35.2135 200.062 35.2031C200.172 35.1927 200.266 35.1797 200.344 35.1641L200.336 36.9453C200.143 37.0078 199.932 37.0573 199.703 37.0938C199.479 37.1354 199.227 37.1562 198.945 37.1562C198.185 37.1562 197.581 36.9609 197.133 36.5703C196.69 36.1797 196.469 35.5312 196.469 34.625V30.2656H195.266V28.5469H196.469V26.4609H198.828V28.5469H200.258V30.2656ZM200.945 32.6953C200.945 31.8724 201.102 31.138 201.414 30.4922C201.727 29.8411 202.182 29.3281 202.781 28.9531C203.38 28.5781 204.107 28.3906 204.961 28.3906C205.826 28.3906 206.557 28.5781 207.156 28.9531C207.76 29.3281 208.216 29.8411 208.523 30.4922C208.836 31.138 208.992 31.8724 208.992 32.6953V32.8594C208.992 33.6771 208.836 34.4115 208.523 35.0625C208.216 35.7083 207.763 36.2188 207.164 36.5938C206.565 36.9688 205.836 37.1562 204.977 37.1562C204.117 37.1562 203.385 36.9688 202.781 36.5938C202.182 36.2188 201.727 35.7083 201.414 35.0625C201.102 34.4115 200.945 33.6771 200.945 32.8594V32.6953ZM203.312 32.8594C203.312 33.3021 203.365 33.7057 203.469 34.0703C203.573 34.4349 203.747 34.724 203.992 34.9375C204.237 35.151 204.565 35.2578 204.977 35.2578C205.586 35.2578 206.013 35.026 206.258 34.5625C206.508 34.0938 206.633 33.526 206.633 32.8594V32.6953C206.633 32.263 206.578 31.8646 206.469 31.5C206.365 31.1354 206.19 30.8438 205.945 30.625C205.706 30.401 205.378 30.2891 204.961 30.2891C204.555 30.2891 204.232 30.401 203.992 30.625C203.753 30.8438 203.578 31.1354 203.469 31.5C203.365 31.8646 203.312 32.263 203.312 32.6953V32.8594ZM214.875 34.6406C214.875 34.4115 214.763 34.2214 214.539 34.0703C214.32 33.9141 213.865 33.763 213.172 33.6172C212.599 33.4974 212.086 33.3307 211.633 33.1172C211.185 32.8984 210.828 32.6198 210.562 32.2812C210.302 31.9427 210.172 31.5286 210.172 31.0391C210.172 30.5651 210.307 30.1276 210.578 29.7266C210.849 29.3255 211.237 29.0026 211.742 28.7578C212.253 28.513 212.862 28.3906 213.57 28.3906C214.68 28.3906 215.552 28.6484 216.188 29.1641C216.828 29.6745 217.148 30.3281 217.148 31.125H214.789C214.789 30.8073 214.69 30.5495 214.492 30.3516C214.299 30.1484 213.99 30.0469 213.562 30.0469C213.214 30.0469 212.938 30.1302 212.734 30.2969C212.531 30.4635 212.43 30.6719 212.43 30.9219C212.43 31.1615 212.542 31.3568 212.766 31.5078C212.995 31.6536 213.393 31.7786 213.961 31.8828C214.56 32.0026 215.102 32.1615 215.586 32.3594C216.07 32.5521 216.456 32.8255 216.742 33.1797C217.029 33.5286 217.172 33.987 217.172 34.5547C217.172 35.0547 217.023 35.5 216.727 35.8906C216.435 36.2812 216.018 36.5911 215.477 36.8203C214.94 37.0443 214.307 37.1562 213.578 37.1562C212.781 37.1562 212.109 37.013 211.562 36.7266C211.016 36.4401 210.602 36.0781 210.32 35.6406C210.039 35.1979 209.898 34.7474 209.898 34.2891H212.133C212.154 34.7109 212.307 35.0182 212.594 35.2109C212.885 35.3984 213.232 35.4922 213.633 35.4922C214.039 35.4922 214.346 35.4141 214.555 35.2578C214.768 35.1016 214.875 34.8958 214.875 34.6406ZM218.703 35.8359C218.703 35.4818 218.823 35.1849 219.062 34.9453C219.307 34.7057 219.63 34.5859 220.031 34.5859C220.432 34.5859 220.753 34.7057 220.992 34.9453C221.232 35.1849 221.352 35.4818 221.352 35.8359C221.352 36.1901 221.232 36.487 220.992 36.7266C220.753 36.9661 220.432 37.0859 220.031 37.0859C219.63 37.0859 219.307 36.9661 219.062 36.7266C218.823 36.487 218.703 36.1901 218.703 35.8359Z" fill="white"/>
<defs>
<filter id="filter0_b" x="-2" y="6" width="243" height="52" filterUnits="userSpaceOnUse" color-interpolation-filters="sRGB">
<feFlood flood-opacity="0" result="BackgroundImageFix"/>
<feGaussianBlur in="BackgroundImage" stdDeviation="1"/>
<feComposite in2="SourceAlpha" operator="in" result="effect1_backgroundBlur"/>
<feBlend mode="normal" in="SourceGraphic" in2="effect1_backgroundBlur" result="shape"/>
</filter>
<filter id="filter1_b" x="15" y="-2" width="20" height="12" filterUnits="userSpaceOnUse" color-interpolation-filters="sRGB">
<feFlood flood-opacity="0" result="BackgroundImageFix"/>
<feGaussianBlur in="BackgroundImage" stdDeviation="1"/>
<feComposite in2="SourceAlpha" operator="in" result="effect1_backgroundBlur"/>
<feBlend mode="normal" in="SourceGraphic" in2="effect1_backgroundBlur" result="shape"/>
</filter>
</defs>
</svg>
